<?xml version="1.0" standalone="no"?>
<!DOCTYPE svg PUBLIC "-//W3C//DTD SVG 20010904//EN"
 "http://www.w3.org/TR/2001/REC-SVG-20010904/DTD/svg10.dtd">
<svg version="1.0" xmlns="http://www.w3.org/2000/svg"
 width="1120.000000pt" height="1120.000000pt" viewBox="0 0 1120.000000 1120.000000"
 preserveAspectRatio="xMidYMid meet">

<g transform="translate(0.000000,1120.000000) scale(0.100000,-0.100000)"
fill="#000000" stroke="none">
<path d="M8159 8352 c-3 -8 -262 -13 -1014 -18 -904 -5 -1024 -8 -1140 -24
-291 -41 -568 -171 -735 -344 -179 -186 -298 -446 -331 -726 -12 -104 -20
-1158 -22 -3108 l-2 -1472 34 0 c19 0 39 -7 45 -15 6 -8 57 -35 114 -60 152
-67 220 -76 567 -76 415 -1 512 7 538 45 4 6 6 466 5 1021 -3 1040 -3 1025 35
1116 21 52 205 89 445 89 314 0 597 63 695 154 15 14 32 26 36 26 9 0 71 75
71 86 0 4 7 15 15 24 45 50 82 243 71 371 -3 43 -15 106 -26 141 -38 123 -107
238 -125 209 -7 -12 -1330 -16 -1359 -5 -13 5 -14 9 -5 20 6 8 18 14 27 14 8
0 12 3 9 7 -4 3 1 16 12 27 27 30 39 128 61 481 34 569 61 727 140 816 74 83
109 113 174 144 111 53 208 64 661 75 505 12 620 28 790 111 80 40 118 68 186
140 165 174 207 442 101 644 -28 54 -68 101 -73 87z m-2269 -2552 c0 -5 -7
-10 -16 -10 -8 0 -12 5 -9 10 3 6 10 10 16 10 5 0 9 -4 9 -10z m-665 -59 c-74
-27 -101 -34 -94 -27 9 10 112 45 129 45 8 0 -7 -8 -35 -18z m-105 -35 c0 -2
-7 -7 -16 -10 -8 -3 -12 -2 -9 4 6 10 25 14 25 6z m-50 -30 c0 -2 -7 -7 -16
-10 -8 -3 -12 -2 -9 4 6 10 25 14 25 6z m830 -731 c-7 -8 -16 -12 -21 -9 -13
8 -1 24 18 24 13 0 13 -3 3 -15z"/>
<path d="M3621 7143 c-52 -170 -118 -404 -151 -533 -18 -69 -39 -136 -47 -148
-8 -13 -13 -25 -11 -27 13 -11 102 -51 151 -67 129 -42 205 -48 579 -48 342 0
468 7 531 32 25 10 28 15 25 45 -3 22 0 32 7 29 6 -2 12 10 13 28 4 43 65 333
118 556 24 102 46 195 49 208 l5 22 -619 0 -620 0 -30 -97z m-24 -679 c-3 -3
-12 -4 -19 -1 -8 3 -5 6 6 6 11 1 17 -2 13 -5z"/>
</g>
</svg>
