<?xml version="1.0" standalone="no"?>
<!DOCTYPE svg PUBLIC "-//W3C//DTD SVG 20010904//EN"
 "http://www.w3.org/TR/2001/REC-SVG-20010904/DTD/svg10.dtd">
<svg version="1.0" xmlns="http://www.w3.org/2000/svg"
 width="1120.000000pt" height="1120.000000pt" viewBox="0 0 1120.000000 1120.000000"
 preserveAspectRatio="xMidYMid meet">

<g transform="translate(0.000000,1120.000000) scale(0.100000,-0.100000)"
fill="#000000" stroke="none">
<path d="M8100 10739 c-514 -4 -1520 -12 -2235 -18 -1563 -13 -2798 -13 -2915
0 -47 6 -194 13 -327 15 l-243 6 -2 -94 c-1 -74 -3 -80 -5 -30 -2 34 -8 62
-14 62 -6 0 -21 -26 -35 -57 -25 -56 -69 -147 -113 -228 l-21 -39 0 -5178 0
-5178 1478 0 c1475 0 1478 0 1537 21 33 11 62 24 65 28 3 4 21 13 40 21 29 11
131 71 254 150 94 60 289 224 275 232 -2 2 -341 1 -754 -2 -412 -3 -757 -2
-765 2 -13 6 321 12 735 13 55 0 257 1 449 3 l348 2 -6 962 c-12 1794 -11
2960 3 2761 3 -45 9 -85 14 -89 4 -4 7 -3 7 2 0 11 53 11 95 0 57 -15 86 -29
96 -47 7 -14 16 -17 33 -13 13 3 35 0 48 -7 12 -7 42 -13 66 -14 24 -1 50 -9
61 -19 15 -13 48 -19 148 -25 72 -4 136 -12 143 -16 20 -13 890 -7 905 5 7 6
57 15 111 20 114 10 226 31 267 48 16 7 38 12 49 12 11 0 35 8 52 19 17 10 49
22 71 26 47 8 282 123 340 166 22 16 63 45 90 64 28 19 70 53 95 76 25 22 56
50 70 60 25 20 21 20 -1075 14 -605 -3 -1229 -8 -1386 -11 -173 -3 -289 -2
-293 4 -3 5 508 12 1322 17 730 4 1356 9 1392 10 l65 3 0 121 c-1 403 -8 773
-15 751 -4 -14 -8 -108 -9 -209 -2 -340 -16 -174 -27 320 -6 269 -14 492 -18
496 -8 8 -4197 -16 -4210 -25 -5 -3 -6 -211 -3 -511 4 -278 9 -1183 11 -2011
4 -1237 3 -1366 -4 -725 -5 429 -14 1140 -20 1580 -6 440 -10 1001 -10 1248 0
391 2 447 15 447 8 0 15 5 15 10 0 6 -17 10 -37 10 -33 0 -40 -5 -53 -33 -18
-39 -139 -131 -174 -133 -21 -2 -26 3 -26 20 0 12 -7 31 -15 42 -13 17 -14 15
-15 -33 0 -89 -18 -59 -26 45 -10 136 -9 733 2 817 l9 70 8 -124 c4 -68 8
-154 8 -190 l1 -66 11 55 11 55 7 -40 c3 -22 7 338 8 800 1 535 5 864 12 905
6 36 10 73 10 83 0 15 3 16 15 7 12 -10 14 -7 14 19 0 19 4 30 10 26 5 -3 19
-1 31 6 19 10 26 7 53 -22 38 -40 53 -87 62 -192 4 -45 11 -74 16 -69 4 4 12
81 17 171 5 89 11 165 15 168 3 4 6 -101 6 -233 0 -131 7 -500 15 -819 8 -319
15 -592 15 -607 l0 -28 701 0 701 0 -7 27 c-4 16 -3 201 1 413 4 212 10 376
12 365 2 -11 8 -24 14 -30 12 -13 3 1557 -9 1599 l-9 28 -354 -2 c-195 -1
-519 -3 -720 -5 l-365 -3 -7 -39 c-4 -21 -8 -60 -9 -88 l-1 -50 -10 55 c-10
56 -28 91 -28 54 0 -58 -22 -240 -30 -248 -6 -6 -10 -20 -10 -32 0 -15 -6 -23
-17 -22 -10 0 -26 -3 -35 -7 -13 -5 -19 0 -23 22 -4 15 -11 40 -17 56 -6 16
-9 76 -6 145 3 100 7 124 26 154 13 20 28 38 35 41 6 2 -12 7 -42 10 -65 8
-73 14 -75 64 -1 37 0 38 34 36 65 -3 133 -3 845 4 664 8 713 9 739 26 19 13
26 23 20 35 -3 9 -12 48 -19 86 l-13 69 331 -6 c182 -4 463 -8 626 -8 203 -1
278 -4 239 -10 -85 -12 -246 -31 -298 -35 -76 -5 -249 -46 -317 -75 -29 -13
-43 -24 -43 -37 0 -29 -43 -42 -161 -50 -91 -7 -71 -8 170 -15 151 -4 362 -7
470 -7 109 0 203 -5 211 -10 11 -7 -1 -10 -40 -11 -43 -1 -49 -3 -30 -9 23 -8
24 -8 3 -9 -17 -1 -24 -9 -29 -36 -3 -19 -10 -35 -15 -35 -5 0 -9 -7 -9 -15 0
-27 -91 -107 -165 -146 -47 -25 -50 -29 -53 -69 -5 -73 3 -89 53 -102 25 -7
45 -16 45 -20 0 -16 70 -37 148 -43 45 -4 82 -12 82 -17 0 -12 1228 2 1465 16
138 9 223 20 250 34 16 8 45 16 65 17 19 2 62 11 95 20 33 9 71 19 85 22 14 3
41 11 60 20 19 8 44 18 55 23 78 33 165 77 192 96 17 13 38 24 47 24 8 0 18 5
21 10 4 6 23 22 43 35 21 14 55 37 76 52 22 16 50 35 62 43 157 102 193 127
198 136 3 8 -42 21 -127 39 -73 16 -138 32 -145 38 -12 10 -53 20 -247 61 -60
13 -128 28 -150 34 -22 6 -103 16 -180 23 -77 7 -144 15 -148 19 -9 8 215 17
623 25 320 6 420 13 420 27 0 7 -153 8 -482 4 -266 -4 -1158 -11 -1983 -16
-825 -5 -1883 -12 -2351 -16 -773 -5 -851 -4 -864 10 -7 9 -11 18 -9 20 2 2
378 7 834 10 805 6 1290 12 1735 22 118 2 616 6 1105 9 490 2 1133 7 1430 11
l540 6 -3 577 c-1 317 -4 582 -7 589 -5 14 7 14 -1515 1z m-5620 -1533 c14
-2500 19 -4665 10 -4579 -5 44 -13 98 -19 120 -6 21 -11 56 -12 78 -2 70 -17
0 -18 -84 -1 -41 -3 -72 -5 -70 -7 7 -15 207 -21 504 -9 475 -13 3725 -5 3660
4 -33 9 -121 9 -195 1 -74 7 -171 13 -215 5 -44 13 -118 17 -165 14 -161 18
1395 5 2115 -4 238 -2 306 7 291 8 -14 13 -392 19 -1460z m7080 964 c0 -283
-4 -510 -9 -510 -12 0 -19 170 -27 597 l-7 361 -2906 -4 c-1598 -2 -2973 -4
-3056 -5 -307 -1 -450 2 -430 10 24 10 720 17 2905 32 1370 9 2842 21 3383 27
l147 2 0 -510z m-6483 454 c-3 -3 -12 -4 -19 -1 -8 3 -5 6 6 6 11 1 17 -2 13
-5z m-680 -1151 c-2 -21 -4 -4 -4 37 0 41 2 58 4 38 2 -21 2 -55 0 -75z m1522
-275 c-1 -217 -5 -345 -10 -318 -9 53 -12 641 -3 664 3 9 8 16 10 16 2 0 3
-163 3 -362z m-1522 -105 c-1 -65 -3 -14 -3 112 0 127 2 180 3 118 2 -62 2
-165 0 -230z m1655 -5 c1 -109 -1 -200 -4 -203 -8 -9 -20 227 -16 342 5 172
19 77 20 -139z m265 -260 c-2 -18 -4 -6 -4 27 0 33 2 48 4 33 2 -15 2 -42 0
-60z m-260 10 c-3 -8 -6 -5 -6 6 -1 11 2 17 5 13 3 -3 4 -12 1 -19z m-6 -131
c-13 -13 -15 21 -3 50 6 15 8 13 10 -11 2 -16 -1 -33 -7 -39z m279 -32 c0 -8
-2 -15 -4 -15 -2 0 -6 7 -10 15 -3 8 -1 15 4 15 6 0 10 -7 10 -15z m-2 -107
c-1 -72 -2 -76 -7 -33 -6 48 -3 115 5 115 2 0 3 -37 2 -82z m-275 -50 c-8 -46
-13 -48 -13 -5 0 21 4 37 10 37 5 0 7 -14 3 -32z m-136 -395 c-3 -10 -5 -2 -5
17 0 19 2 27 5 18 2 -10 2 -26 0 -35z m16 -780 c12 -880 20 -2568 13 -2562
-18 17 -47 3069 -29 3069 7 0 12 -177 16 -507z m104 325 c-2 -18 -4 -6 -4 27
0 33 2 48 4 33 2 -15 2 -42 0 -60z m1660 -10 c-3 -7 -5 -2 -5 12 0 14 2 19 5
13 2 -7 2 -19 0 -25z m80 0 c-3 -7 -5 -2 -5 12 0 14 2 19 5 13 2 -7 2 -19 0
-25z m-68 -447 c1 -167 -1 -302 -3 -300 -2 2 -6 164 -8 359 -3 195 -2 330 2
300 4 -30 8 -192 9 -359z m-1672 347 c-2 -13 -4 -5 -4 17 -1 22 1 32 4 23 2
-10 2 -28 0 -40z m-10 -125 c-3 -10 -5 -2 -5 17 0 19 2 27 5 18 2 -10 2 -26 0
-35z m10 -235 c-2 -24 -4 -5 -4 42 0 47 2 66 4 43 2 -24 2 -62 0 -85z m-30
-190 c-3 -8 -6 -5 -6 6 -1 11 2 17 5 13 3 -3 4 -12 1 -19z m0 -300 c-2 -18 -4
-6 -4 27 0 33 2 48 4 33 2 -15 2 -42 0 -60z m4503 -798 c0 -5 -9 -14 -21 -20
-45 -24 -4048 -38 -4056 -14 -5 15 411 22 1887 33 1715 12 2190 12 2190 1z
m-4346 -582 c5 16 11 20 23 14 8 -5 32 -6 53 -2 l38 7 9 -96 c10 -120 10 -975
-1 -1016 l-8 -30 -18 25 c-10 14 -20 23 -22 20 -19 -29 -38 -71 -38 -84 0 -25
-28 -19 -33 7 -2 12 -3 -12 -1 -53 2 -49 1 -63 -4 -40 -11 52 -22 15 -23 -78
-2 -74 -2 -75 -9 -27 -4 28 -11 343 -15 700 -8 631 -7 651 11 670 19 18 19 18
25 -11 5 -28 5 -28 13 -6z m4424 -778 c2 -13 -111 -15 -960 -19 -530 -2 -1125
-5 -1323 -6 -410 -4 -535 1 -535 21 0 12 133 14 783 17 1711 5 2031 3 2035
-13z m-2751 -157 c-3 -10 -5 -2 -5 17 0 19 2 27 5 18 2 -10 2 -26 0 -35z
m-1730 -1156 c-2 -23 -3 -1 -3 48 0 50 1 68 3 42 2 -26 2 -67 0 -90z m1671
-2702 c-7 -7 -1380 -6 -1386 0 -3 3 309 5 693 5 384 0 696 -2 693 -5z m-2300
-12 c-103 -2 -274 -2 -380 0 -106 1 -22 2 187 2 209 0 296 -1 193 -2z m632
-73 c0 -7 -191 -11 -580 -12 -970 -4 -1073 -4 -1077 7 -2 7 279 11 827 13 563
2 830 -1 830 -8z"/>
<path d="M5774 6683 c-9 -14 -36 -18 -175 -23 l-164 -7 178 -1 177 -2 0 25 c0
30 -2 30 -16 8z"/>
</g>
</svg>
